# xmcd
# 
# Track frame offsets:
#     150
#     54607
#     110025
#     144722
#     166644
#     174780
#     201838
#     226702
#     248939
#     257093
#     281613
#     292771
#     312271
# 
# Disc length: 4668
# 
# Revision: 1
# Processed by: cddbd v1.5.2PL0 Copyright (c) Steve Scherf et al.
# Submitted via: BonkEnc v1.0.5
# 
DISCID=b2123a0d
DTITLE=Nodame - Nodame's Classical Music CD5
DYEAR=0
DGENRE=Classical
TTITLE0=01.Schubert: Piano Sonatas no.16, D.845 - 1
TTITLE1=02.Schubert: Piano Sonatas no.16, D.845 - 2
TTITLE2=03.Schubert: Piano Sonatas no.16, D.845 - 3
TTITLE3=04.Schubert: Piano Sonatas no.16, D.845 - 4
TTITLE4=05.Chopin: Etude op.10 no.4
TTITLE5=06.Debussy: L'ile joyeuse
TTITLE6=07.Schumann: Sonata no.2 -1
TTITLE7=08.Schumann: Sonata no.2 - 2
TTITLE8=09.Schumann: Sonata no.2 - 3
TTITLE9=10.Schumann: Sonata no.2 - 4
TTITLE10=11.Stravinsky: 3 mouvements de Petrouchka - 1
TTITLE11=12.Stravinsky: 3 mouvements de Petrouchka - 2
TTITLE12=13.Stravinsky: 3 mouvements de Petrouchka - 3
EXTD=
EXTT0=
EXTT1=
EXTT2=
EXTT3=
EXTT4=
EXTT5=
EXTT6=
EXTT7=
EXTT8=
EXTT9=
EXTT10=
EXTT11=
EXTT12=
PLAYORDER=
